<svg xmlns="http://www.w3.org/2000/svg" width="300" height="43.618" viewBox="0 0 300 43.618">
  <g id="header-logo" transform="translate(0.025 -0.3)">
    <path id="パス_5" data-name="パス 5" d="M47.833,15.559c.682,0,1.517.17,1.517,1.006s-.682,1.074-1.995,1.074h-5a16.4,16.4,0,0,0-.17,2.37v8.865c0,1.176.324,4.006,2.745,4.006s3.546-1.7,4.279-1.7a.784.784,0,0,1,.733.682c0,.784-.733,1.347-2.421,2.489A15.752,15.752,0,0,1,41,36.87c-3.41,0-4.177-4.279-4.177-5.4V18.117c-3.41,0-3.41,0-3.41-.9,0-.511,0-.614,2.353-1.517,4.347-1.7,5-5.626,6.257-5.626.392,0,.563,0,.563,1.125s-.17,3.6-.17,4.279Zm-7.825-1.074a15.65,15.65,0,0,1-1.995,1.7V30.817c0,1.006.1,4.569,3.41,4.569A4.739,4.739,0,0,0,43.86,34.6c-3.716,0-3.768-2.438-3.768-3.716Z" transform="translate(23.56 6.883)" fill="#006b50"/>
    <path id="パス_6" data-name="パス 6" d="M54.975,13.006a7.416,7.416,0,0,1,6.819,3.6,4.3,4.3,0,0,0,.682,1.176c.511.443,1.364.17,1.364,1.006,0,.273-.17.443-.46.733a42.279,42.279,0,0,1-5.285,1.364c-2.813.733-5.745,1.347-8.524,1.995,0,2.523.682,8.677,6.137,8.677,3.41,0,5.865-2.25,6.529-2.25s.733.222.733.614c0,1.125-2.148,2.25-3.41,3a15.343,15.343,0,0,1-7.28,2.029,6.683,6.683,0,0,1-5.4-2.25,11.934,11.934,0,0,1-2.523-7.6A11.524,11.524,0,0,1,54.94,13.159m-5.234,8.268c2.591-.511,5.114-1.466,7.655-2.2-.222-.614-1.176-4.5-3.614-4.5-2.745,0-3.716,3.324-4.006,6.7m1.3-6.359c-1.995.682-5.472,4.5-5.472,9.871s3.41,8.524,6.086,8.524c1.006,0,1.7-.17,2.182-.17-3.819-.784-6.478-3.665-6.478-8.524a14.593,14.593,0,0,1,3.665-9.7m9.411,3.41c0-.494-1.7-4.006-4.45-4.006a7.944,7.944,0,0,1,2.694,4.415c.563-.17,1.347-.341,1.7-.443" transform="translate(31.266 8.942)" fill="#006b50"/>
    <path id="パス_7" data-name="パス 7" d="M61.169,19.766c-.1-2.25-1.125-3-3.887-2.915-.443,0-.682-.17-.682-.614s0-1.006.9-1.006a13.638,13.638,0,0,0,6.819-1.347A6.12,6.12,0,0,1,66.4,12.81c.682,0,.733.511.733,1.006s-.563,3.41-.733,4.228l6.5-5.114h.17c.341,0,1.006.614,3.546,3.205a6.564,6.564,0,0,1-1.245,2.421c-.392.614-1.006,1.3-1.415,1.909h-.273l-.733-.511a6.12,6.12,0,0,0-3.734-1.381,3.41,3.41,0,0,0-2.319.852,4.825,4.825,0,0,0-.511,2.642v4.4c0,4.893.1,6,1.245,6a40.917,40.917,0,0,1,4.16.341c.494.1.494.682.494,1.006,0,.682-.392.9-1.415.9s-5.234-.443-6.529-.443a52.354,52.354,0,0,0-6.257.443c-.614,0-1.074-.341-1.074-.784,0-.733.443-.835,1.858-1.176,2.2-.222,2.37-2.438,2.37-4.006Zm1.125,8.626A35.017,35.017,0,0,1,61.9,32.5h2.745a14.861,14.861,0,0,1-.1-1.585V19.322a23.374,23.374,0,0,1,.494-3.938c-.443.17-2.421,1.006-2.813,1.057,0,0-.392,0-.46.119a7.177,7.177,0,0,1,.511,3.205Zm7.484-11.269a19.23,19.23,0,0,1,3.41,1.7,11.235,11.235,0,0,1,1.3-1.909,15.435,15.435,0,0,1-1.909-1.7,25.76,25.76,0,0,1-2.813,1.926" transform="translate(39.902 8.814)" fill="#006b50"/>
    <path id="パス_8" data-name="パス 8" d="M94,29.267a3.887,3.887,0,0,0,1.245,3,5.114,5.114,0,0,0,2.37.614c.9.17,1.074.17,1.074,1.006s-.273.784-.9.784a60.363,60.363,0,0,0-6.188-.443c-1.466,0-4.893.443-5.455.443s-1.3-.1-1.3-.733,1.006-1.125,2.489-1.415c.886-.17,1.006-1.245,1.3-2.08a25.572,25.572,0,0,0,.273-4.62c0-5.455-.17-7.382-.9-8a4.313,4.313,0,0,0-3.324-1.074,8.388,8.388,0,0,0-5.8,2.182V29.761c0,1.995,0,2.08,1.995,2.864a12.649,12.649,0,0,0,1.347.392c.392.222.392.392.392.784,0,.733-.614.835-1.176.835-1.006,0-4.569-.443-5.575-.443a38.12,38.12,0,0,0-6,.443c-.733,0-1.006-.273-1.006-.9s.1-.733.9-.9l1.995-.392a1.568,1.568,0,0,0,1.364-1.245,37.215,37.215,0,0,0,.665-9c0-1.3,0-4.671-1.245-5a15.242,15.242,0,0,0-2.591-.392.682.682,0,0,1-.733-.733c0-.563.17-.852.665-.852a11.934,11.934,0,0,0,7.007-1.7,5.575,5.575,0,0,1,2.148-.784.6.6,0,0,1,.563.631h0a30.8,30.8,0,0,0-.614,3.768c2.711-1.739,5.694-3.938,8.8-3.938,3.41,0,6.257,2.2,6.257,6.819ZM77.272,32.54a14.934,14.934,0,0,1-.1-1.7V18.577a16.33,16.33,0,0,1,.46-3.273,18.872,18.872,0,0,1-3.41,1.176A13.809,13.809,0,0,1,75,22.345a51.332,51.332,0,0,1-.614,10.229Zm14.866,0a21.19,21.19,0,0,1-.222-4.006V21.714c0-2.813-.17-6.649-4.842-6.649a6.819,6.819,0,0,0-3.205.665c6.137,0,6.205,3.1,6.205,9a25.231,25.231,0,0,1-.784,7.876Z" transform="translate(48.534 8.757)" fill="#006b50"/>
    <path id="パス_9" data-name="パス 9" d="M108.464,23.578c0,4.5-2.25,11.32-11.78,11.32-6.819,0-10.144-5.847-10.144-11A10.86,10.86,0,0,1,98.047,13.008a10.433,10.433,0,0,1,10.416,10.536m-5.438,2.182c0-2.694-1.585-11-6.308-11-3,0-4.62,3.41-4.62,7.433,0,2.421,1.074,11,5.8,11,2.694,0,5.114-2.319,5.114-7.382m-8,7.723A11.439,11.439,0,0,1,89.9,23.493a11.1,11.1,0,0,1,2.932-8,9,9,0,0,0-5.114,8.285c0,3.6,2.148,9.24,7.314,9.8M98.7,14.321a8.524,8.524,0,0,1,4.279,5.114,25.3,25.3,0,0,1,1.125,6.086,9.428,9.428,0,0,1-2.932,7.484c2.148-.494,4.842-3.6,4.842-8.609,0-5.847-3.546-10.127-7.314-10.127" transform="translate(60.999 8.94)" fill="#006b50"/>
    <path id="パス_10" data-name="パス 10" d="M123.177,23.577c0,4.518-2.233,11.32-11.78,11.32-6.819,0-10.127-5.847-10.127-11a10.843,10.843,0,0,1,11.473-10.894A10.433,10.433,0,0,1,123.16,23.543m-5.455,2.2c0-2.711-1.568-11-6.308-11-3,0-4.62,3.41-4.62,7.433,0,2.421,1.074,11,5.8,11,2.694,0,5.114-2.319,5.114-7.365m-8,7.706a11.439,11.439,0,0,1-5.114-10.007,11.286,11.286,0,0,1,2.932-8.047,9,9,0,0,0-5.114,8.285c0,3.6,2.148,9.24,7.314,9.8m3.665-19.264a8.524,8.524,0,0,1,4.279,5.114,25.232,25.232,0,0,1,1.125,6.069,9.445,9.445,0,0,1-2.932,7.484c2.148-.511,4.859-3.614,4.859-8.609,0-5.865-3.563-10.144-7.331-10.144" transform="translate(71.379 8.94)" fill="#006b50"/>
    <path id="パス_11" data-name="パス 11" d="M140.038,29.27a3.853,3.853,0,0,0,1.245,3,5.114,5.114,0,0,0,2.37.614c.887.17,1.074.17,1.074,1.006s-.273.784-.9.784a60.181,60.181,0,0,0-6.205-.443c-1.466,0-4.893.443-5.455.443s-1.3-.1-1.3-.733,1.006-1.125,2.472-1.415c.9-.17,1.006-1.245,1.3-2.08a25.881,25.881,0,0,0,.273-4.6c0-5.455-.17-7.382-.886-8a4.364,4.364,0,0,0-3.41-1.074,8.4,8.4,0,0,0-5.8,2.182V29.764c0,1.995,0,2.08,1.995,2.864a12.293,12.293,0,0,0,1.347.392c.392.222.392.392.392.784,0,.733-.614.852-1.176.852-1.006,0-4.552-.443-5.575-.443a38.308,38.308,0,0,0-6,.443c-.716,0-1.006-.273-1.006-.9s.1-.733.886-.9l1.995-.392a1.568,1.568,0,0,0,1.347-1.245,36.466,36.466,0,0,0,.682-9c0-1.3,0-4.671-1.245-5a15.206,15.206,0,0,0-2.591-.392.682.682,0,0,1-.733-.733c0-.563.17-.852.665-.852a12.07,12.07,0,0,0,7.007-1.7,5.524,5.524,0,0,1,2.148-.784.6.6,0,0,1,.563.631h0a29.832,29.832,0,0,0-.631,3.768c2.694-1.909,5.694-4.057,8.8-4.057,3.41,0,6.257,2.2,6.257,6.819Zm-16.724,3.273a14.918,14.918,0,0,1-.1-1.7V18.563a15.754,15.754,0,0,1,.392-3.273,18.753,18.753,0,0,1-3.41,1.193,14.013,14.013,0,0,1,.784,5.865,51.637,51.637,0,0,1-.614,10.229Zm14.866,0a21.089,21.089,0,0,1-.222-4.006V21.7c0-2.813-.188-6.649-4.859-6.649a6.819,6.819,0,0,0-3.205.682c6.137,0,6.188,3.086,6.188,8.95a24.907,24.907,0,0,1-.784,7.876Z" transform="translate(80.906 8.772)" fill="#006b50"/>
    <path id="パス_12" data-name="パス 12" d="M160.79,13.005a7.45,7.45,0,0,1,6.819,3.6,4.108,4.108,0,0,0,.682,1.125c.494.443,1.347.17,1.347,1.006,0,.273-.171.443-.443.733a42.448,42.448,0,0,1-5.285,1.466c-2.813.733-5.745,1.347-8.524,1.995,0,2.523.665,8.677,6.137,8.677,3.41,0,5.865-2.25,6.546-2.25s.733.222.733.614c0,1.125-2.131,2.25-3.41,3a15.343,15.343,0,0,1-7.262,1.995,6.666,6.666,0,0,1-5.4-2.25,11.934,11.934,0,0,1-2.523-7.6A11.524,11.524,0,0,1,160.79,13.176m-5.251,8.354c2.608-.511,5.114-1.466,7.672-2.2-.222-.614-1.176-4.5-3.614-4.5-2.745,0-3.716,3.324-4.057,6.7m1.313-6.359c-1.995.682-5.472,4.5-5.472,9.871s3.41,8.524,6.069,8.524c1.006,0,1.7-.17,2.2-.17-3.836-.784-6.478-3.665-6.478-8.524a14.576,14.576,0,0,1,3.665-9.7m9.411,3.41c0-.494-1.7-4.006-4.45-4.006a7.859,7.859,0,0,1,2.711,4.5c.563-.17,1.347-.341,1.7-.443" transform="translate(105.853 8.942)" fill="#006b50"/>
    <path id="パス_13" data-name="パス 13" d="M175.334,17.93c0-2.25-1.995-2.523-3.324-2.523A3.41,3.41,0,0,0,168.6,17.4a2.9,2.9,0,0,1-3.086,2.25c-.511,0-.852,0-.852-.665,0-1.858,3-3.836,5.285-4.79a28.981,28.981,0,0,1,6-1.176c4.739,0,4.739,2.694,4.739,5V30.273a1.227,1.227,0,0,0,1.142,1.313h.273a6.819,6.819,0,0,0,1.4-.511,3.632,3.632,0,0,1,1.006-.273.767.767,0,0,1,.835.665.8.8,0,0,1-.443.784c-.614.273-3.324,1.7-3.955,1.909a7.007,7.007,0,0,1-2.591.733c-2.2,0-2.779-1.585-3.205-3-3.546,1.807-6,3-8.166,3a4.092,4.092,0,0,1-4.33-3.836v-.375c0-2.932,2.694-4.4,4.279-5a30.09,30.09,0,0,1,8.337-1.995Zm-.153,6.99a21.7,21.7,0,0,0-5.677,1.7,2.762,2.762,0,0,0-1.7,2.762c0,1.466,1.125,2.319,2.779,2.319a16.281,16.281,0,0,0,4.569-1.006Zm3.41-7.535c0-2.08-1.006-2.932-3.41-2.932a5.9,5.9,0,0,0-1.4.17c2.2.494,2.779,1.517,2.779,3.273V30.8a2.37,2.37,0,0,0,2.267,2.642,3,3,0,0,0,1.4-.443,2.336,2.336,0,0,1-1.7-1.995ZM167.781,33.8l1.125-.17a6.575,6.575,0,0,0,1.125-.341c-1.807-.324-3.6-1.125-3.6-3.41a5,5,0,0,1,1.347-3.324,4.825,4.825,0,0,0-3.205,4.279,3.256,3.256,0,0,0,3.205,3" transform="translate(114.632 8.962)" fill="#006b50"/>
    <path id="パス_14" data-name="パス 14" d="M170.473,8.312c-.375,1.3-.7,2.318-.767,2.506a1.006,1.006,0,0,1-1.108.716.886.886,0,0,1-.835-.835,1.532,1.532,0,0,1,.136-.563,9.242,9.242,0,0,1,.324-1.006,11.93,11.93,0,0,0,.443-2.182,1.7,1.7,0,0,0-1.091-1.807,21.959,21.959,0,0,0-7.45-.716h-4.194V36.814c0,3.529,1.159,4.006,4.381,4.5a6.257,6.257,0,0,1,1.995.443.392.392,0,0,1,.256.443v.324c0,.9-.375.9-1.6.9s-3.41-.511-8.285-.511c-6.564,0-10.007.511-10.672.511s-1.091-.188-1.091-.835.563-.835,1.006-1.006l3-.835c2.9-.835,3.6-3.085,3.6-6.819V4.425H143.4c-2.625,0-6.1.188-7.6,2.114-.375.563-.835,1.3-1.21,1.926s-.7,1.347-1.006,1.807a1.3,1.3,0,0,1-1.159.58c-.375,0-.511-.256-.511-.58a11.934,11.934,0,0,1,.443-1.3c.256-.648.58-1.534,1.006-2.438a21.341,21.341,0,0,0,1.347-5.472c0-.324.188-.7.511-.7a.836.836,0,0,1,.443.188,8.223,8.223,0,0,0,.648.58,4.126,4.126,0,0,0,2.319,1.091,22.353,22.353,0,0,0,2.694,0h22.5c3.921,0,5.728,0,7.467-1.159a5.115,5.115,0,0,1,.784-.511A1.125,1.125,0,0,1,172.638.3a.682.682,0,0,1,.648.7A21.889,21.889,0,0,1,171.8,4.408a24.53,24.53,0,0,0-1.364,3.818m-17.253-3.8h-2.813v26.32a26.506,26.506,0,0,1-1.228,9.836h4.245c0-.835-.187-1.875-.187-2.642Z" transform="translate(92.966)" fill="#006b50"/>
    <path id="パス_15" data-name="パス 15" d="M46.337,40.764V21.911A28.534,28.534,0,0,1,48.69,10.08c-1.176.989-4.347,5.233-4.347,12.836V37.56a8.693,8.693,0,0,1-.494,3.2Zm7.5-33.156a4.876,4.876,0,0,0-3.614,1.244,6.82,6.82,0,0,1,4.347.716c.273,0,.784-.733.784-1.347s-1.125-.614-1.585-.614M20.987,5.444l-1.33,3.2a2.534,2.534,0,0,1,.136.392l8.677,24A28.688,28.688,0,0,1,29.7,36.452a14.165,14.165,0,0,1,.767,3.921l3.938.188c-1.807-4.125-3.086-7.773-4.5-11.438ZM12.275,27.11H24.993l-6-16.194ZM46,42.452a35.121,35.121,0,0,0-5.387.358c-2.233,0-4.722-.46-7.007-.341-8.524,0-8.746.511-9.325.511a.938.938,0,0,1-.835-1.006c0-.835,1.3-1.006,1.858-1.006,3.086-.511,3.41-.58,3.41-2.25s-2.182-7.705-3-9.648H11.44l-1.7,4.5a13.466,13.466,0,0,0-1.33,4.892c0,1.807,1.227,2.063,2.319,2.25a9.332,9.332,0,0,1,1.6.256,6.82,6.82,0,0,1,1.159.222c.392.188.392.528.392.835a.938.938,0,0,1-.443.835h-.511a20.563,20.563,0,0,1-2.25-.392A19.69,19.69,0,0,0,8.3,42.35H3.9c-1.483,0-2.114.119-2.642.119s-1.279,0-1.279-.614a.9.9,0,0,1,.443-.9,2.165,2.165,0,0,1,.648-.256A6.227,6.227,0,0,0,2.08,40.44c2.182-.58,3-1.807,6-8.813l12.1-27.905a18.75,18.75,0,0,1,1.142-2.438,1.006,1.006,0,0,1,.852-.2c.511,0,.511.136.58.324.136.563,2.046,7.126,2.438,8.285s6.086,15.853,9.24,23.456c1.926,4.875,2.847,6.324,4.279,7.006A3.41,3.41,0,0,0,42.4,39.52a6.085,6.085,0,0,0,.733-2.915V24.672h-1.7c-.852,0-1.585,0-1.585-1.125a1.057,1.057,0,0,1,1.108-1.006h2.387a22.16,22.16,0,0,1,3.836-12.393C49,8,50.616,6.074,54.571,6.074c2.489,0,2.489.733,2.489,1.347s-1.245,3.409-2.421,3.409c-.511,0-.733-.341-1.125-.682a2.387,2.387,0,0,0-1.858-.665,2.489,2.489,0,0,0-2.08,1.466,29.165,29.165,0,0,0-1.125,7.6v3.836h4.415c1.807,0,1.995,0,1.995,1.244,0,.784-.1.852-1.995.852h-4.5V38.8c0,1.244.784,1.466,1.568,1.7a14.56,14.56,0,0,0,3.41.614c.443,0,.443.273.443.733,0,.9-.273,1.006-1.466,1.006s-3-.443-6.359-.443" transform="translate(0 0.533)" fill="#006b50"/>
  </g>
</svg>
