<svg xmlns="http://www.w3.org/2000/svg" width="128" height="19" viewBox="0 0 128 19">
  <g id="グループ_4994" data-name="グループ 4994" transform="translate(-1096.622 -88.175)">
    <g id="グループ_4996" data-name="グループ 4996" transform="translate(1145.828 88.175)">
      <path id="パス_2402" data-name="パス 2402" d="M1397.875,156.7l-1.147,1.126-1.146,1.126a.113.113,0,0,0,.081.193h2.293a.114.114,0,0,0,.115-.113v-2.253A.115.115,0,0,0,1397.875,156.7Z" transform="translate(-1371.367 -140.144)"/>
      <path id="パス_2403" data-name="パス 2403" d="M1309.023,88.627h0a.3.3,0,0,0,.307-.3.152.152,0,0,0-.153-.151h-5.065a.152.152,0,0,0-.153.151.3.3,0,0,0,.307.3h0a1.141,1.141,0,0,1,1.151,1.131V99.835a.077.077,0,0,1-.149.026l-3.875-10.209a.761.761,0,0,1,.724-1.024.3.3,0,0,0,.307-.3.152.152,0,0,0-.154-.151h-5.065a.152.152,0,0,0-.153.151.3.3,0,0,0,.307.3h0a1.141,1.141,0,0,1,1.151,1.131v15.833a1.141,1.141,0,0,1-1.151,1.131h0a.3.3,0,0,0-.307.3.152.152,0,0,0,.153.151h5.065a.152.152,0,0,0,.154-.151.3.3,0,0,0-.307-.3,1.141,1.141,0,0,1-1.151-1.131V95l4.048,10.667a.787.787,0,0,1-.749,1.06h0a.3.3,0,0,0-.307.3.152.152,0,0,0,.153.151h5.065a.152.152,0,0,0,.153-.151.3.3,0,0,0-.307-.3h0a1.141,1.141,0,0,1-1.151-1.131V89.758A1.141,1.141,0,0,1,1309.023,88.627Z" transform="translate(-1297.052 -88.175)"/>
      <path id="パス_2404" data-name="パス 2404" d="M1360.494,106.722a1.141,1.141,0,0,1-1.151-1.131v-6.56l3.5-9.283a1.749,1.749,0,0,1,1.641-1.122h0a.3.3,0,0,0,.307-.3.152.152,0,0,0-.154-.151h-5.065a.152.152,0,0,0-.153.151.3.3,0,0,0,.307.3.77.77,0,0,1,.733,1.034l-2.191,5.809a.154.154,0,0,1-.287,0l-2.2-5.827a.756.756,0,0,1,.72-1.017h0a.3.3,0,0,0,.307-.3.152.152,0,0,0-.153-.151h-5.065a.152.152,0,0,0-.153.151.3.3,0,0,0,.307.3h0a1.777,1.777,0,0,1,1.667,1.14l3.475,9.214v6.61a1.141,1.141,0,0,1-1.151,1.131.3.3,0,0,0-.307.3.152.152,0,0,0,.153.151h5.065a.152.152,0,0,0,.153-.151A.3.3,0,0,0,1360.494,106.722Z" transform="translate(-1338.087 -88.175)"/>
    </g>
    <path id="パス_2405" data-name="パス 2405" d="M1468.118,122.74h1.353l1.443,4.161a37.152,37.152,0,0,1,1.109,3.765q-.175-1.21-.258-2.19t-.084-1.849V122.74h1.462v10.436h-1.364l-1.622-4.7q-.223-.656-.422-1.345t-.366-1.446q-.014-.093-.046-.23t-.073-.311q.021.176.035.3c.01.083.017.154.021.213l.076,1.061.076,1.295c0,.072.008.16.01.263s0,.221,0,.351l.076,4.549h-1.431Z" transform="translate(-280.29 -26.227)"/>
    <path id="パス_2406" data-name="パス 2406" d="M1507.292,122.74h1.451v9.246h2.371v1.19h-3.822Z" transform="translate(-309.849 -26.227)"/>
    <rect id="長方形_2872" data-name="長方形 2872" width="1.455" height="10.436" transform="translate(1205.105 96.513)"/>
    <path id="パス_2407" data-name="パス 2407" d="M1563.1,122.74h1.353l1.444,4.161a37.119,37.119,0,0,1,1.109,3.765q-.174-1.21-.258-2.19t-.084-1.849V122.74h1.458v10.436h-1.36l-1.622-4.7q-.223-.656-.422-1.345t-.367-1.446q-.014-.093-.046-.23t-.073-.311q.021.176.035.3t.021.213l.073,1.062.076,1.294c0,.072.008.16.011.264s0,.221,0,.351l.076,4.549H1563.1Z" transform="translate(-351.955 -26.227)"/>
    <path id="パス_2408" data-name="パス 2408" d="M1602.285,122.74h3.857v1.19h-2.407v3.3h2.134v1.19h-2.134v3.562h2.406v1.189h-3.857Z" transform="translate(-381.52 -26.227)"/>
    <g id="グループ_4892" data-name="グループ 4892" transform="translate(1096.622 89.92)">
      <rect id="長方形_2555" data-name="長方形 2555" width="3.638" height="13.105" transform="translate(8.488 0)" fill="#050505"/>
      <rect id="長方形_2556" data-name="長方形 2556" width="3.638" height="14.297" transform="translate(16.976 1.191)" fill="#d0d0d0"/>
      <rect id="長方形_2557" data-name="長方形 2557" width="3.638" height="3.574" transform="translate(25.464 1.191)" fill="#bc0a10"/>
      <rect id="長方形_2554" data-name="長方形 2554" width="3.638" height="7.148" transform="translate(0 5.957)" fill="#bca99a"/>
    </g>
    <path id="パス_2409" data-name="パス 2409" d="M1433.225,124.495a2.547,2.547,0,0,0-5.022,0,22.49,22.49,0,0,0-.2,3.222,15.2,15.2,0,0,0,.2,3.213,2.561,2.561,0,0,0,5.021,0,15.191,15.191,0,0,0,.2-3.214A22.505,22.505,0,0,0,1433.225,124.495Zm-3.626,6.155a14.712,14.712,0,0,1-.168-2.934,21.916,21.916,0,0,1,.17-2.952c.181-.763.525-1.1,1.113-1.1s.932.34,1.113,1.1a21.929,21.929,0,0,1,.17,2.953,14.763,14.763,0,0,1-.168,2.933c-.18.727-.524,1.051-1.115,1.051S1429.779,131.377,1429.6,130.65Z" transform="translate(-250.024 -25.95)"/>
  </g>
</svg>
